<svg
  width="219"
  height="103"
  viewBox="0 0 219 103"
  fill="none"
  xmlns="http://www.w3.org/2000/svg"
>
  <g clip-path="url(#clip0_3_40)">
    <rect x="-15" y="-46" width="250" height="200" fill="white" />
    <path
      fill-rule="evenodd"
      clip-rule="evenodd"
      d="M48 88H139C139.515 88 140.017 87.9444 140.5 87.8389C140.983 87.9444 141.485 88 142 88H194C197.866 88 201 84.866 201 81C201 77.134 197.866 74 194 74H188C184.134 74 181 70.866 181 67C181 63.134 184.134 60 188 60H207C210.866 60 214 56.866 214 53C214 49.134 210.866 46 207 46H185C188.866 46 192 42.866 192 39C192 35.134 188.866 32 185 32H121C124.866 32 128 28.866 128 25C128 21.134 124.866 18 121 18H64C60.134 18 57 21.134 57 25C57 28.866 60.134 32 64 32H24C20.134 32 17 35.134 17 39C17 42.866 20.134 46 24 46H49C52.866 46 56 49.134 56 53C56 56.866 52.866 60 49 60H9C5.13401 60 2 63.134 2 67C2 70.866 5.13401 74 9 74H48C44.134 74 41 77.134 41 81C41 84.866 44.134 88 48 88ZM211 88C214.866 88 218 84.866 218 81C218 77.134 214.866 74 211 74C207.134 74 204 77.134 204 81C204 84.866 207.134 88 211 88Z"
      fill="#FFF8DA"
    />
    <path
      fill-rule="evenodd"
      clip-rule="evenodd"
      d="M153.577 80.0748C151 82 148.488 83.8097 145.644 85.3737L145.809 99.457C145.822 100.562 144.937 101.467 143.832 101.48C143.383 101.486 142.945 101.339 142.589 101.066L129.926 91.3231C125.18 92.4156 120.173 93 115 93C84.6243 93 60 72.8528 60 48C60 23.1472 84.6243 3 115 3C145.376 3 170 23.1472 170 48C170 54.8787 168.114 61.397 164.741 67.2274C164.119 68.3027 163.446 69.3546 162.726 70.381C162.726 70.381 161.317 72.5 158.5 75.5C155.683 78.5 153.577 80.0748 153.577 80.0748Z"
      fill="white"
    />
    <path
      fill-rule="evenodd"
      clip-rule="evenodd"
      d="M153.577 80.0748C151 82 148.488 83.8097 145.644 85.3737L145.809 99.457C145.822 100.562 144.937 101.467 143.832 101.48C143.383 101.486 142.945 101.339 142.589 101.066L129.926 91.3231C125.18 92.4156 120.173 93 115 93C84.6243 93 60 72.8528 60 48C60 23.1472 84.6243 3 115 3C145.376 3 170 23.1472 170 48C170 54.8787 168.114 61.397 164.741 67.2274C164.119 68.3027 163.446 69.3546 162.726 70.381C162.726 70.381 161.317 72.5 158.5 75.5C155.683 78.5 153.577 80.0748 153.577 80.0748Z"
      stroke="#F59E0B"
      stroke-width="2.5"
      stroke-linecap="round"
    />
    <path
      fill-rule="evenodd"
      clip-rule="evenodd"
      d="M147.853 35.5895C153.157 35.5895 158.266 34.957 163.051 33.7868C164.961 38.1364 166 42.8232 166 47.7074C166 54.0432 164.251 60.0469 161.123 65.4171C160.547 66.4075 159.923 67.3764 159.255 68.3218C158.2 69.8146 157.448 70.8687 156.785 71.7139C155.219 73.7135 154.155 74.5444 150.771 77.2505C148.515 79.0553 146.052 80.6906 143.415 82.1311L143.568 95.1029C143.58 96.1202 143.889 97.9878 142.865 98C142.449 98.0046 140.913 96.8367 140.583 96.5844L130.373 87.4666C125.972 88.4729 119.797 89.1555 115 89.1555C86.8335 89.1555 64 70.5985 64 47.7074C64 28.961 79.3133 13.1215 100.328 8C105.832 23.8745 125.023 35.5895 147.853 35.5895ZM95.291 42.1483C91.986 42.1483 89.3067 44.8448 89.3067 48.1711C89.3067 51.4974 91.986 54.1939 95.291 54.1939C98.596 54.1939 101.275 51.4974 101.275 48.1711C101.275 44.8448 98.596 42.1483 95.291 42.1483ZM114.241 42.1483C110.936 42.1483 108.257 44.8448 108.257 48.1711C108.257 51.4974 110.936 54.1939 114.241 54.1939C117.546 54.1939 120.225 51.4974 120.225 48.1711C120.225 44.8448 117.546 42.1483 114.241 42.1483ZM133.191 42.1483C129.886 42.1483 127.207 44.8448 127.207 48.1711C127.207 51.4974 129.886 54.1939 133.191 54.1939C136.496 54.1939 139.176 51.4974 139.176 48.1711C139.176 44.8448 136.496 42.1483 133.191 42.1483Z"
      fill="#FFEAB3"
    />
    <path
      fill-rule="evenodd"
      clip-rule="evenodd"
      d="M95 42C98.3137 42 101 44.6863 101 48C101 51.3137 98.3137 54 95 54C91.6863 54 89 51.3137 89 48C89 44.6863 91.6863 42 95 42ZM114 42C117.314 42 120 44.6863 120 48C120 51.3137 117.314 54 114 54C110.686 54 108 51.3137 108 48C108 44.6863 110.686 42 114 42ZM133 42C136.314 42 139 44.6863 139 48C139 51.3137 136.314 54 133 54C129.686 54 127 51.3137 127 48C127 44.6863 129.686 42 133 42Z"
      fill="white"
      stroke="#F59E0B"
      stroke-width="2.5"
    />
    <path
      d="M74.6621 33.3112C73.7541 34.8431 72.9672 36.4329 72.3118 38.0722"
      stroke="#FCC14D"
      stroke-width="2.5"
      stroke-linecap="round"
    />
    <path
      d="M93.0219 17.0732C86.4692 20.2006 80.937 24.6244 76.9392 29.9203"
      stroke="#FCC14D"
      stroke-width="2.5"
      stroke-linecap="round"
    />
  </g>
  <defs>
    <clipPath id="clip0_3_40">
      <rect width="219" height="103" fill="white" />
    </clipPath>
  </defs>
</svg>
